<svg width="1969" height="95" viewBox="0 0 1969 95" fill="none" xmlns="http://www.w3.org/2000/svg">
<path d="M1556.49 88.445C1439.73 83.41 1326.52 71.345 1177.27 40.945C1118.98 28.88 1025.85 11.495 979.381 6.83999C932.912 2.18499 875.811 -0.570012 830.721 1.80499C810.637 2.84999 786.222 3.13499 732.074 8.83499C678.517 14.82 617.478 24.605 575.736 32.3C494.416 47.405 388.877 53.105 311.89 53.77C141.768 55.29 0 24.51 0 24.51V95H1969V62.035C1969 62.035 1867.6 80.465 1759.89 86.45C1652.98 92.15 1602.96 90.44 1556.49 88.445Z" fill="white"/>
</svg>
