<svg width="1920" height="191" viewBox="0 0 1920 191" fill="none" xmlns="http://www.w3.org/2000/svg">
<path d="M1517.76 13.2483C1403.9 23.4243 1293.5 47.8083 1147.97 109.248C1091.14 133.632 1000.32 168.768 955.008 178.176C909.696 187.584 854.016 193.152 810.048 188.352C790.464 186.24 766.656 185.664 713.856 174.144C661.632 162.048 602.112 142.272 561.408 126.72C482.112 96.1923 379.2 84.6723 304.128 83.3283C138.24 80.2563 0 142.464 0 142.464V0.000300063H1920V66.6243C1920 66.6243 1821.12 29.3763 1716.1 17.2803C1611.84 5.7603 1563.07 9.2163 1517.76 13.2483Z" fill="white"/>
</svg>
