<svg width="1919" height="201" viewBox="0 0 1919 201" fill="none" xmlns="http://www.w3.org/2000/svg">
<path d="M402.03 186.074C515.827 175.368 626.17 149.714 771.63 85.0736C828.432 59.4196 919.201 22.4536 964.489 12.5556C1009.78 2.65761 1065.43 -3.20039 1109.37 1.84961C1128.95 4.07161 1152.74 4.67761 1205.52 16.7976C1257.71 29.5236 1317.2 50.3296 1357.88 66.6916C1437.14 98.8096 1540 110.93 1615.03 112.344C1780.83 115.576 1919 50.1276 1919 50.1276V200.012H-2.95639e-05V129.918C-2.95639e-05 129.918 98.8285 169.106 203.798 181.832C307.999 193.952 356.742 190.316 402.03 186.074Z" fill="white"/>
</svg>
